<svg width="61" height="61" viewBox="0 0 61 61" fill="none" xmlns="http://www.w3.org/2000/svg">
<g clip-path="url(#clip0_10_818)">
<path d="M28.5938 0C27.5364 0 26.6875 0.848876 26.6875 1.90625V9.53125C26.6875 10.5886 27.5364 11.4375 28.5938 11.4375H32.4062C33.4636 11.4375 34.3125 10.5886 34.3125 9.53125V1.90625C34.3125 0.848876 33.4636 0 32.4062 0H28.5938ZM11.6311 7.0293C11.1396 7.0293 10.6631 7.20801 10.2908 7.58032L7.58032 10.2908C6.83569 11.0354 6.83569 12.2268 7.58032 12.9863L12.9863 18.3774C13.731 19.1221 14.9224 19.1221 15.6819 18.3774L18.3774 15.6819C19.1221 14.9224 19.1221 13.731 18.3774 12.9863L12.9863 7.58032C12.5991 7.20801 12.1226 7.0293 11.6311 7.0293ZM49.3689 7.0293C48.8774 7.0293 48.4009 7.20801 48.0137 7.58032L42.6226 12.9863C41.8779 13.731 41.8779 14.9224 42.6226 15.6819L45.3181 18.3774C46.0776 19.1221 47.269 19.1221 48.0137 18.3774L53.4197 12.9863C54.1643 12.2268 54.1643 11.0354 53.4197 10.2908L50.7092 7.58032C50.3369 7.20801 49.8604 7.0293 49.3689 7.0293ZM30.5 15.2798C22.1304 15.2798 15.25 22.1602 15.25 30.5298C15.25 38.8845 22.1304 45.7798 30.5 45.7798C38.8696 45.7798 45.75 38.8845 45.75 30.5298C45.75 22.1602 38.8696 15.2798 30.5 15.2798ZM1.90625 26.6875C0.848876 26.6875 0 27.5364 0 28.5938V32.4062C0 33.4636 0.848876 34.3125 1.90625 34.3125H9.53125C10.5886 34.3125 11.4375 33.4636 11.4375 32.4062V28.5938C11.4375 27.5364 10.5886 26.6875 9.53125 26.6875H1.90625ZM51.4688 26.6875C50.4114 26.6875 49.5625 27.5364 49.5625 28.5938V32.4062C49.5625 33.4636 50.4114 34.3125 51.4688 34.3125H59.0938C60.1511 34.3125 61 33.4636 61 32.4062V28.5938C61 27.5364 60.1511 26.6875 59.0938 26.6875H51.4688ZM14.3267 42.0715C13.8352 42.0715 13.3586 42.2502 12.9863 42.6226L7.58032 48.0137C6.83569 48.7732 6.83569 49.9646 7.58032 50.7092L10.2908 53.4197C11.0354 54.1643 12.2268 54.1643 12.9863 53.4197L18.3774 48.0137C19.1221 47.269 19.1221 46.0776 18.3774 45.3181L15.6819 42.6226C15.2947 42.2502 14.8181 42.0715 14.3267 42.0715ZM46.6733 42.0715C46.1819 42.0715 45.7053 42.2502 45.3181 42.6226L42.6226 45.3181C41.8779 46.0776 41.8779 47.269 42.6226 48.0137L48.0137 53.4197C48.7732 54.1643 49.9646 54.1643 50.7092 53.4197L53.4197 50.7092C54.1643 49.9646 54.1643 48.7732 53.4197 48.0137L48.0137 42.6226C47.6414 42.2502 47.1648 42.0715 46.6733 42.0715ZM28.5938 49.5625C27.5364 49.5625 26.6875 50.4114 26.6875 51.4688V59.0938C26.6875 60.1511 27.5364 61 28.5938 61H32.4062C33.4636 61 34.3125 60.1511 34.3125 59.0938V51.4688C34.3125 50.4114 33.4636 49.5625 32.4062 49.5625H28.5938Z" fill="#060606"/>
</g>
<defs>
<clipPath id="clip0_10_818">
<rect width="61" height="61" fill="white"/>
</clipPath>
</defs>
</svg>
